<svg width="126" height="58" viewBox="0 0 126 58" fill="none" xmlns="http://www.w3.org/2000/svg">
<g clip-path="url(#clip0_3_9)">
<path d="M50.2702 10.0759H49.9198C49.3039 10.0759 48.8047 10.5784 48.8047 11.1983V11.2026C48.8047 11.8225 49.3039 12.3251 49.9198 12.3251H50.2702C50.886 12.3251 51.3853 11.8225 51.3853 11.2026V11.1983C51.3853 10.5784 50.886 10.0759 50.2702 10.0759Z" fill="white"/>
<path d="M45.8695 10.0759H45.5191C44.9032 10.0759 44.404 10.5784 44.404 11.1983V11.2026C44.404 11.8225 44.9032 12.3251 45.5191 12.3251H45.8695C46.4853 12.3251 46.9846 11.8225 46.9846 11.2026V11.1983C46.9846 10.5784 46.4853 10.0759 45.8695 10.0759Z" fill="white"/>
<path d="M63.2329 10.0759H62.8825C62.2666 10.0759 61.7674 10.5784 61.7674 11.1983V11.2026C61.7674 11.8225 62.2666 12.3251 62.8825 12.3251H63.2329C63.8487 12.3251 64.348 11.8225 64.348 11.2026V11.1983C64.348 10.5784 63.8487 10.0759 63.2329 10.0759Z" fill="white"/>
<path d="M0.243532 41.7744H10.2753C10.4078 41.7744 10.5189 41.882 10.5189 42.0196V43.0388C10.5189 43.1721 10.4121 43.2839 10.2753 43.2839H1.87135V46.6898H8.36553C8.49798 46.6898 8.60907 46.7974 8.60907 46.935V47.9542C8.60907 48.0875 8.50225 48.1993 8.36553 48.1993H1.87135V52.8696C1.87135 53.0029 1.76454 53.1147 1.62782 53.1147H0.243532C0.111085 53.1147 0 53.0072 0 52.8696V42.0196C0 41.8863 0.106812 41.7744 0.243532 41.7744Z" fill="white"/>
<path d="M16.7396 41.9164L21.7726 52.7664C21.8495 52.9298 21.7299 53.1147 21.5547 53.1147H20.2302C20.1362 53.1147 20.0508 53.0588 20.0123 52.9771L18.8374 50.4785H12.6423L11.4844 52.99C11.446 53.076 11.3563 53.1319 11.2623 53.1319L9.9207 53.119C9.74553 53.119 9.63017 52.9341 9.7028 52.7707L14.7358 41.9164C14.7742 41.8304 14.8597 41.7744 14.9537 41.7744H16.5174C16.6114 41.7744 16.6969 41.8304 16.7353 41.9164H16.7396ZM13.3216 48.9519H18.1538L15.7356 43.7785L13.3216 48.9519Z" fill="white"/>
<path d="M21.1018 41.7744H32.2744C32.4068 41.7744 32.5179 41.882 32.5179 42.0196V43.0388C32.5179 43.1721 32.4111 43.2839 32.2744 43.2839H27.6344V52.8868C27.6344 53.0201 27.5276 53.1319 27.3909 53.1319H25.9853C25.8528 53.1319 25.7417 53.0244 25.7417 52.8868V43.2839H21.1018C20.9694 43.2839 20.8583 43.1764 20.8583 43.0388V42.0196C20.8583 41.8863 20.9651 41.7744 21.1018 41.7744Z" fill="white"/>
<path d="M44.9124 51.8504V52.8696C44.9124 53.0029 44.8056 53.1147 44.6689 53.1147H34.2098V41.7787H44.6689C44.8013 41.7787 44.9124 41.8863 44.9124 42.0239V43.0431C44.9124 43.1764 44.8056 43.2882 44.6689 43.2882H36.0812V46.6941H42.5583C42.6907 46.6941 42.8018 46.8017 42.8018 46.9393V47.9585C42.8018 48.0918 42.695 48.2036 42.5583 48.2036H36.0812V51.6138H44.6689C44.8013 51.6138 44.9124 51.7214 44.9124 51.859V51.8504Z" fill="white"/>
<path d="M69.1375 51.8504V52.8696C69.1375 53.0029 69.0306 53.1147 68.8939 53.1147H58.9946V42.0196C58.9946 41.8863 59.1014 41.7744 59.2381 41.7744H60.6267C60.7591 41.7744 60.8702 41.882 60.8702 42.0196V51.6052H68.8982C69.0306 51.6052 69.1417 51.7128 69.1417 51.8504H69.1375Z" fill="white"/>
<path d="M57.3069 51.8504V52.8696C57.3069 53.0029 57.2001 53.1147 57.0634 53.1147H46.6043V41.7787H57.0634C57.1958 41.7787 57.3069 41.8863 57.3069 42.0239V43.0431C57.3069 43.1764 57.2001 43.2882 57.0634 43.2882H48.4757V46.6941H54.9528C55.0852 46.6941 55.1963 46.8017 55.1963 46.9393V47.9585C55.1963 48.0918 55.0895 48.2036 54.9528 48.2036H48.4757V51.6138H57.0634C57.1958 51.6138 57.3069 51.7214 57.3069 51.859V51.8504Z" fill="white"/>
<path d="M4.82791 14.471C4.69974 14.1699 4.52029 13.899 4.29813 13.6711C4.07168 13.4431 3.80679 13.2625 3.50344 13.1292C3.19582 12.9959 2.86684 12.9314 2.52077 12.9314C2.1747 12.9314 1.83717 13.0002 1.52955 13.1335C1.22193 13.2668 0.957038 13.4517 0.730596 13.6797C0.504154 13.9076 0.324709 14.1785 0.196535 14.4796C0.0683598 14.7849 0 15.1117 0 15.4558V15.4687C0 15.8127 0.0640874 16.1395 0.196535 16.4449C0.324709 16.7502 0.504154 17.0168 0.726323 17.2447C0.952765 17.4727 1.21766 17.6533 1.52101 17.7866C1.82863 17.9199 2.15761 17.9844 2.50795 17.9844C2.8583 17.9844 3.18728 17.9156 3.4949 17.7823C3.80252 17.649 4.06741 17.4641 4.29385 17.2361C4.52029 17.0082 4.69974 16.7373 4.82791 16.4363C4.95609 16.1309 5.02445 15.8041 5.02445 15.4601V15.4472C5.02445 15.1031 4.96036 14.7763 4.82791 14.471ZM3.28982 17.3006C3.05056 17.4039 2.78994 17.4598 2.50368 17.4598C2.21742 17.4598 1.96107 17.4082 1.72181 17.3049C1.47828 17.2017 1.2732 17.0598 1.09376 16.8792C0.918585 16.6986 0.781866 16.4879 0.679326 16.247C0.581059 16.0019 0.529789 15.7482 0.529789 15.473V15.4601C0.529789 15.1848 0.581059 14.9268 0.683598 14.6817C0.781866 14.4365 0.922858 14.2258 1.09803 14.0452C1.2732 13.8689 1.48255 13.727 1.72609 13.6195C1.96535 13.5163 2.22597 13.4604 2.51222 13.4604C2.79848 13.4604 3.05056 13.512 3.28982 13.6152C3.53335 13.7184 3.73843 13.8603 3.9136 14.0409C4.08877 14.2215 4.22549 14.4322 4.32803 14.6731C4.4263 14.9139 4.47757 15.1719 4.47757 15.4472V15.4601C4.47757 15.7353 4.4263 15.989 4.32376 16.2384C4.22549 16.4836 4.0845 16.6943 3.90933 16.8749C3.73416 17.0555 3.5248 17.1931 3.28127 17.3006H3.28982Z" fill="white"/>
<path d="M3.05482 15.2321C3.00782 14.9655 2.78993 14.8322 2.5293 14.8322C2.05506 14.8322 1.95252 15.2063 1.95252 15.4558C1.95252 15.7052 2.05079 16.0793 2.5293 16.0793C2.77284 16.0793 3.00355 15.9632 3.05482 15.6708H3.59743C3.53334 16.2083 3.09327 16.432 2.50794 16.432C1.83716 16.432 1.42273 16.1438 1.42273 15.4558C1.42273 14.7677 1.84143 14.4796 2.50794 14.4796C2.95228 14.4796 3.51625 14.5914 3.59315 15.2321H3.05482Z" fill="white"/>
<path d="M68.7401 17.7565C68.4709 17.0555 68.0608 16.4879 67.5182 16.0621C66.4372 15.2192 64.882 14.8107 62.8697 14.8107C60.7975 14.8107 59.2765 15.2321 58.3238 16.118C57.3753 17.0082 56.9224 18.3929 56.9224 20.2378V22.6805C56.9224 23.9061 57.1317 24.8737 57.5718 25.5833H52.8806C51.5348 25.5833 50.5436 25.3812 49.9112 25.007C49.5951 24.8178 49.3644 24.5942 49.2148 24.3233C49.061 24.0523 48.9841 23.7384 48.9841 23.36V15.0085C48.9841 14.8752 48.8773 14.7634 48.7406 14.7634H47.0615C46.929 14.7634 46.8179 14.8709 46.8179 15.0085V23.36C46.8179 23.7341 46.7368 24.0523 46.5872 24.3233C46.3565 24.7275 45.9549 25.0414 45.3397 25.2564C44.7501 25.4629 43.9682 25.5747 43.0069 25.5833C41.7465 25.5661 40.5887 25.3683 39.982 25.007C39.6658 24.8178 39.4351 24.5942 39.2855 24.3233C39.1317 24.0523 39.0548 23.7384 39.0548 23.36V15.0085C39.0548 14.8752 38.948 14.7634 38.8113 14.7634H37.1322C36.9998 14.7634 36.8887 14.8709 36.8887 15.0085V23.36C36.8887 23.7341 36.8075 24.0523 36.658 24.3233C36.4273 24.7275 36.0256 25.0414 35.4104 25.2564C34.8293 25.4629 34.0603 25.5704 33.1161 25.5833C32.2103 25.5747 18.8075 25.4758 15.6672 25.2951C15.5433 25.2908 15.428 25.2736 15.3169 25.2564C15.3041 25.2564 15.287 25.2521 15.2742 25.2478C15.2058 25.2349 15.1417 25.222 15.0819 25.2048C14.9537 25.1661 14.8341 25.1102 14.7273 25.05C14.7059 25.0371 14.6803 25.0242 14.6589 25.0113C14.6333 24.9984 14.6119 24.9812 14.5906 24.9683C13.8856 24.4652 13.8386 23.4589 13.8386 23.4589V10.3253C13.8386 10.192 13.7318 10.0802 13.5951 10.0802H11.775C11.6425 10.0802 11.5315 10.1877 11.5315 10.3253V28.757C11.5315 29.9783 11.0657 30.9029 10.1087 31.5996C9.29694 32.206 8.22027 32.5629 6.86162 32.6532C6.71635 32.6618 6.57109 32.6618 6.4301 32.6618C5.33207 32.6618 4.38357 32.4554 3.58462 32.0425C3.10183 31.7974 2.75576 31.5093 2.52504 31.191C2.2986 30.8685 2.18752 30.5116 2.18324 30.0987V25.7983C2.18324 25.665 2.07643 25.5532 1.93971 25.5532H0.243532C0.111085 25.5532 0 25.6607 0 25.7983V30.1933C0 30.9674 0.183717 31.6641 0.546879 32.2705C0.914313 32.8768 1.46119 33.3886 2.1747 33.8014C3.31545 34.468 4.69119 34.7991 6.28483 34.7991C6.48991 34.7991 6.69499 34.7948 6.90434 34.7819C8.79706 34.6572 10.3736 34.1411 11.6254 33.2338C13.0824 32.1672 13.8343 30.7524 13.8301 29.0537V27.1314C13.9668 27.2088 14.0949 27.2733 14.2103 27.3207C14.8597 27.583 15.7014 27.7378 16.7482 27.798H33.7441C34.7482 27.7507 35.5941 27.5959 36.282 27.325C36.9442 27.0368 37.4911 26.6412 37.9397 26.1509C38.3841 26.6412 38.9352 27.0368 39.5974 27.325C40.281 27.5959 41.1313 27.7507 42.1353 27.8023H43.6648C44.6689 27.7507 45.5191 27.5959 46.2027 27.325C46.8649 27.0368 47.4118 26.6412 47.8604 26.1509C48.3048 26.6412 48.8559 27.0368 49.5182 27.325C50.2018 27.5959 51.052 27.7507 52.056 27.8023V27.8281H63.5576C65.3734 27.8281 66.7705 27.3852 67.7147 26.4692C68.6589 25.5532 69.1161 24.1899 69.1161 22.4225V20.2335C69.1161 19.2788 68.9836 18.4489 68.7145 17.7479L68.7401 17.7565ZM66.8388 22.2891C66.8388 23.4546 66.5398 24.263 65.9758 24.7748C65.446 25.2693 64.5317 25.5532 63.2115 25.5833C63.1389 25.5833 63.0662 25.5833 62.9936 25.5833C61.605 25.5833 60.6266 25.2994 60.037 24.7705C59.4731 24.2458 59.1783 23.4331 59.174 22.2848V20.3539C59.174 19.0939 59.4773 18.2252 60.037 17.7049C60.5925 17.1845 61.5794 16.8921 63.0021 16.8964C64.4121 16.8964 65.399 17.1759 65.9715 17.6834C66.5269 18.1865 66.8303 19.0638 66.8303 20.3539V22.2848L66.8388 22.2891Z" fill="white"/>
<path d="M121.484 33.5477L121.71 33.7757C125.039 37.3708 124.962 43.0087 121.484 46.5092L111.405 56.654C109.628 58.443 106.744 58.443 104.967 56.654C103.189 54.865 103.189 51.9622 104.967 50.1732L121.488 33.5434L121.484 33.5477Z" fill="#6F003B"/>
<path d="M104.962 23.3987C103.185 25.1876 103.185 28.0904 104.962 29.8794L115.041 40.0241C118.596 43.6064 118.596 49.412 115.037 52.9943L121.48 46.5092C124.962 43.0044 125.039 37.3708 121.706 33.7756L121.48 33.5477L111.401 23.403C109.624 21.614 106.74 21.614 104.962 23.403V23.3987Z" fill="#A8003A"/>
<path d="M90.0256 45.0428C89.5984 45.0428 89.1711 44.8794 88.8464 44.5525C88.1927 43.8946 88.1927 42.8324 88.8464 42.1744L96.9898 33.9778C97.6435 33.3198 98.6988 33.3198 99.3525 33.9778C100.006 34.6357 100.006 35.6979 99.3525 36.3559L91.2091 44.5525C90.8844 44.8794 90.4571 45.0428 90.0299 45.0428H90.0256Z" fill="#DF0035"/>
<path d="M116.186 18.7112C115.759 18.7112 115.332 18.5478 115.007 18.221C114.353 17.563 114.353 16.5008 115.007 15.8428L123.15 7.64619C123.804 6.98822 124.859 6.98822 125.513 7.64619C126.167 8.30415 126.167 9.36636 125.513 10.0243L117.37 18.221C117.045 18.5478 116.618 18.7112 116.19 18.7112H116.186Z" fill="#DF0035"/>
<path d="M94.4348 27.7765H82.9162C81.9934 27.7765 81.2457 27.0239 81.2457 26.095C81.2457 25.1662 81.9934 24.4136 82.9162 24.4136H94.4348C95.3577 24.4136 96.1054 25.1662 96.1054 26.095C96.1054 27.0239 95.3577 27.7765 94.4348 27.7765Z" fill="#DF0035"/>
<path d="M98.169 18.7112C97.7417 18.7112 97.3145 18.5478 96.9898 18.221L88.8464 10.0243C88.1927 9.36636 88.1927 8.30415 88.8464 7.64619C89.5001 6.98822 90.5554 6.98822 91.2091 7.64619L99.3525 15.8428C100.006 16.5008 100.006 17.563 99.3525 18.221C99.0278 18.5478 98.6005 18.7112 98.1733 18.7112H98.169Z" fill="#DF0035"/>
<path d="M107.18 14.9526C106.257 14.9526 105.509 14.2 105.509 13.2712V1.68147C105.509 0.752577 106.257 0 107.18 0C108.103 0 108.85 0.752577 108.85 1.68147V13.2755C108.85 14.2043 108.103 14.9569 107.18 14.9569V14.9526Z" fill="#DF0035"/>
<path d="M40.3408 30.245H39.9905C39.3746 30.245 38.8754 30.7475 38.8754 31.3674V31.3717C38.8754 31.9916 39.3746 32.4941 39.9905 32.4941H40.3408C40.9567 32.4941 41.456 31.9916 41.456 31.3717V31.3674C41.456 30.7475 40.9567 30.245 40.3408 30.245Z" fill="white"/>
<path d="M35.9402 30.245H35.5899C34.974 30.245 34.4747 30.7475 34.4747 31.3674V31.3717C34.4747 31.9916 34.974 32.4941 35.5899 32.4941H35.9402C36.5561 32.4941 37.0553 31.9916 37.0553 31.3717V31.3674C37.0553 30.7475 36.5561 30.245 35.9402 30.245Z" fill="white"/>
</g>
<defs>
<clipPath id="clip0_3_9">
<rect width="126" height="58" fill="white"/>
</clipPath>
</defs>
</svg>
